<?xml version="1.0" standalone="no"?><!DOCTYPE svg PUBLIC "-//W3C//DTD SVG 1.1//EN" "http://www.w3.org/Graphics/SVG/1.1/DTD/svg11.dtd"><svg t="1723101068126" class="icon" viewBox="0 0 1024 1024" version="1.1" xmlns="http://www.w3.org/2000/svg" p-id="6304" width="32" height="32" xmlns:xlink="http://www.w3.org/1999/xlink"><path d="M412.353713 1024c-138.819777 0-279.681021-65.236222-338.974305-207.186248-14.426369-34.568846-48.223994-115.501684 1.90537-159.960305 9.39075-8.347333 63.330852-42.68935 91.866028-29.896155 5.942938 2.67659 15.878079 9.844409 15.878079 27.809322-0.045366 88.009924 44.730817 166.901294 114.140706 200.925748 78.256247 38.379585 174.885699 32.391281 240.394116-14.880028a264.165869 264.165869 0 0 0 89.189438-110.375332c17.919546-40.55715 29.079568-85.287967 36.156655-145.034911 16.241007-136.778309-28.353713-309.30498-164.632997-364.878256A247.924863 247.924863 0 0 0 318.62768 218.845295c-26.221513 9.935141-47.543505 26.675173-70.181109 44.413255-21.821017 17.102959-44.413255 34.841042-71.768917 45.864966-33.117136 13.382952-86.694312 35.022506-121.898281 16.42247C37.177388 316.245968 9.050505 276.822967 2.472444 245.747298c-2.994152-14.154173-1.270246-25.495658 5.126351-33.616162 8.574163-10.84246 25.404926-10.524898 40.375687-10.207337 4.854156 0.090732 9.345384 0.272196 12.294169-0.226829a96.085061 96.085061 0 0 0 53.486444-28.625909c3.039518-3.266348 5.852206-8.619529 8.891724-14.290271 5.716108-10.84246 12.248804-23.091264 24.36151-28.217614 4.944887-2.086833 11.250753-4.128301 17.964912-6.305866 12.29417-3.946837 27.582492-8.891724 33.888357-14.834662 5.080985-4.763424 6.668793-12.158072 8.574163-20.732235 1.996101-9.300018 4.35513-19.824916 11.613681-29.1703 11.659047-14.925394 30.62201-26.584441 57.977671-35.657629a480.107744 480.107744 0 0 1 275.008329-7.349282c58.658161 15.968811 115.547049 44.186426 164.451533 81.567961 8.891724 6.759525 19.008329 16.104909 29.760057 25.994683 54.439128 50.038632 102.708488 88.146022 142.585149 46.091795 6.623427-6.986355 11.341485-15.923445 16.286373-25.404926 4.173666-7.93904 8.528797-16.104909 14.244905-23.681021a20.505405 20.505405 0 0 1 19.189793-8.347333c29.760057 2.948786 67.958178 64.419635 71.088428 70.95233 28.308347 58.612795 10.434166 121.716817-45.456672 160.776892a196.071593 196.071593 0 0 1-83.47333 33.117136c-8.982456 1.043417-64.238171-2.767322-70.453305-3.220981a9.209286 9.209286 0 0 0-9.844409 9.390749c1.406344 21.095162 3.856105 42.054226 6.396598 62.967925 4.627326 38.742513 9.39075 78.755272 6.986355 119.947546a685.796917 685.796917 0 0 1-25.404927 150.161262c-23.454191 81.386497-83.609428 225.967748-223.563353 279.499557a430.159844 430.159844 0 0 1-152.565656 27.537125z" p-id="6305" fill="#1890ff"></path></svg>